<svg width="38" height="38" viewBox="0 0 38 38" fill="none" xmlns="http://www.w3.org/2000/svg">
<circle cx="19" cy="19" r="19" fill="url(#paint0_linear_18_1417)"/>
<path d="M21.7445 19.401L16.7627 23.9552C16.6474 24.0606 16.4936 24.1187 16.3296 24.1187C16.1656 24.1187 16.0118 24.0606 15.8966 23.9552L15.5297 23.6199C15.2909 23.4014 15.2909 23.0463 15.5297 22.8281L19.7131 19.0038L15.525 15.1753C15.4098 15.0699 15.3462 14.9294 15.3462 14.7795C15.3462 14.6295 15.4098 14.489 15.525 14.3835L15.8919 14.0483C16.0072 13.9428 16.161 13.8848 16.325 13.8848C16.489 13.8848 16.6428 13.9428 16.758 14.0483L21.7445 18.6065C21.86 18.7123 21.9235 18.8535 21.9231 19.0036C21.9235 19.1543 21.86 19.2954 21.7445 19.401Z" fill="white"/>
<defs>
<linearGradient id="paint0_linear_18_1417" x1="2.21765e-07" y1="20.8269" x2="38" y2="20.8269" gradientUnits="userSpaceOnUse">
<stop stop-color="#F4BE27"/>
<stop offset="1" stop-color="#D57F0B"/>
</linearGradient>
</defs>
</svg>
