<svg width="24" height="21" viewBox="0 0 24 21" fill="none" xmlns="http://www.w3.org/2000/svg">
<g id="Group 32">
<path id="Vector" d="M7.43959 13.8207H7.44065C7.44153 13.8207 7.44241 13.8205 7.44329 13.8205H19.7083C20.0103 13.8205 20.2758 13.62 20.3587 13.3295L23.0647 3.85133C23.123 3.64699 23.0821 3.42731 22.9544 3.25771C22.8265 3.0881 22.6265 2.98832 22.4143 2.98832H5.87945L5.39586 0.810422C5.32698 0.500654 5.05251 0.280273 4.73541 0.280273H0.676487C0.302834 0.280273 0 0.583341 0 0.957284C0 1.33123 0.302834 1.63429 0.676487 1.63429H4.19281C4.27843 2.02023 6.50696 12.0566 6.63521 12.634C5.91626 12.9467 5.41189 13.6641 5.41189 14.4975C5.41189 15.6174 6.32233 16.5285 7.44135 16.5285H19.7083C20.082 16.5285 20.3848 16.2255 20.3848 15.8515C20.3848 15.4776 20.082 15.1745 19.7083 15.1745H7.44135C7.06841 15.1745 6.76487 14.8707 6.76487 14.4975C6.76487 14.1248 7.06735 13.8215 7.43959 13.8207ZM21.5174 4.34234L19.198 12.4665H7.98395L6.17999 4.34234H21.5174Z" fill="white"/>
<path id="Vector_2" d="M6.76514 18.5596C6.76514 19.6795 7.67558 20.5906 8.7946 20.5906C9.91362 20.5906 10.8241 19.6795 10.8241 18.5596C10.8241 17.4397 9.91362 16.5286 8.7946 16.5286C7.67558 16.5286 6.76514 17.4397 6.76514 18.5596ZM8.7946 17.8826C9.16755 17.8826 9.47108 18.1864 9.47108 18.5596C9.47108 18.9328 9.16755 19.2366 8.7946 19.2366C8.42165 19.2366 8.11811 18.9328 8.11811 18.5596C8.11811 18.1864 8.42165 17.8826 8.7946 17.8826Z" fill="white"/>
<path id="Vector_3" d="M16.3262 18.5596C16.3262 19.6795 17.2366 20.5906 18.3556 20.5906C19.4747 20.5906 20.3851 19.6795 20.3851 18.5596C20.3851 17.4397 19.4747 16.5286 18.3556 16.5286C17.2366 16.5286 16.3262 17.4397 16.3262 18.5596ZM18.3556 17.8826C18.7286 17.8826 19.0321 18.1864 19.0321 18.5596C19.0321 18.9328 18.7286 19.2366 18.3556 19.2366C17.9827 19.2366 17.6791 18.9328 17.6791 18.5596C17.6791 18.1864 17.9827 17.8826 18.3556 17.8826Z" fill="white"/>
</g>
</svg>
