<svg width="30" height="30" viewBox="0 0 30 30" fill="none" xmlns="http://www.w3.org/2000/svg">
<g id="Group 84">
<g id="Ellipse 6" filter="url(#filter0_d_11_472)">
<circle cx="15" cy="12" r="10" fill="url(#paint0_linear_11_472)"/>
</g>
<path id="Vector" d="M14.2121 15.8266C14.1071 15.9379 13.9638 16 13.815 16C13.6662 16 13.523 15.9379 13.418 15.8266L10.2468 12.4847C9.91773 12.1379 9.91773 11.5756 10.2468 11.2295L10.6439 10.811C10.9731 10.4642 11.5061 10.4642 11.8352 10.811L13.815 12.8972L19.1648 7.26007C19.494 6.91331 20.0275 6.91331 20.3561 7.26007L20.7532 7.67858C21.0823 8.02535 21.0823 8.58754 20.7532 8.93377L14.2121 15.8266Z" fill="white"/>
</g>
<defs>
<filter id="filter0_d_11_472" x="0" y="0" width="30" height="30" filterUnits="userSpaceOnUse" color-interpolation-filters="sRGB">
<feFlood flood-opacity="0" result="BackgroundImageFix"/>
<feColorMatrix in="SourceAlpha" type="matrix" values="0 0 0 0 0 0 0 0 0 0 0 0 0 0 0 0 0 0 127 0" result="hardAlpha"/>
<feOffset dy="3"/>
<feGaussianBlur stdDeviation="2.5"/>
<feComposite in2="hardAlpha" operator="out"/>
<feColorMatrix type="matrix" values="0 0 0 0 1 0 0 0 0 0.635294 0 0 0 0 0.254902 0 0 0 0.36 0"/>
<feBlend mode="normal" in2="BackgroundImageFix" result="effect1_dropShadow_11_472"/>
<feBlend mode="normal" in="SourceGraphic" in2="effect1_dropShadow_11_472" result="shape"/>
</filter>
<linearGradient id="paint0_linear_11_472" x1="15" y1="2" x2="15" y2="22" gradientUnits="userSpaceOnUse">
<stop stop-color="#FFA047"/>
<stop offset="1" stop-color="#FFC000"/>
</linearGradient>
</defs>
</svg>
