<svg width="38" height="38" viewBox="0 0 38 38" fill="none" xmlns="http://www.w3.org/2000/svg">
<g id="Group 76">
<g id="Rectangle 24" filter="url(#filter0_d_17_1176)">
<rect x="4" y="4" width="30" height="30" rx="7" fill="white"/>
</g>
<g id="Group">
<path id="Vector" d="M14.0211 17.2952H12.8698C12.7252 17.2952 12.5865 17.3527 12.4844 17.4551C12.3823 17.5575 12.3252 17.6964 12.3257 17.841L12.3337 21.974C12.3337 22.2745 12.5773 22.5181 12.8778 22.5181C13.1783 22.5181 13.4219 22.2745 13.4219 21.974V20.7191C13.6443 20.718 13.882 20.717 14.0211 20.717C14.9771 20.717 15.7549 19.9495 15.7549 19.0061C15.7549 18.0627 14.9771 17.2952 14.0211 17.2952ZM14.0211 19.6289C13.8808 19.6289 13.6422 19.6298 13.4189 19.631C13.4177 19.3994 13.4167 19.1499 13.4167 19.0061C13.4167 18.883 13.4161 18.6255 13.4155 18.3833H14.0211C14.371 18.3833 14.6667 18.6685 14.6667 19.0061C14.6667 19.3437 14.371 19.6289 14.0211 19.6289Z" fill="#CD6E00"/>
<path id="Vector_2" d="M18.6492 17.2952H17.5128C17.3684 17.2952 17.2298 17.3526 17.1277 17.4549C17.0257 17.5571 16.9685 17.6958 16.9688 17.8403C16.9688 17.8403 16.9768 21.8391 16.9769 21.8537C16.9774 21.998 17.0352 22.1362 17.1377 22.2378C17.2396 22.339 17.3774 22.3958 17.521 22.3958H17.523C17.5574 22.3956 18.368 22.3926 18.692 22.3869C19.9214 22.3654 20.8137 21.2966 20.8137 19.8455C20.8137 18.3201 19.9439 17.2952 18.6492 17.2952ZM18.673 21.2989C18.5321 21.3014 18.2896 21.3034 18.0632 21.3048C18.0617 20.8322 18.0587 18.8745 18.0579 18.3833H18.6492C19.6479 18.3833 19.7255 19.5025 19.7255 19.8455C19.7255 20.5598 19.4001 21.2862 18.673 21.2989Z" fill="#CD6E00"/>
<path id="Vector_3" d="M24.3995 18.3413C24.7 18.3413 24.9436 18.0977 24.9436 17.7973C24.9436 17.4968 24.7 17.2532 24.3995 17.2532H22.736C22.4355 17.2532 22.1919 17.4968 22.1919 17.7973V21.9018C22.1919 22.2022 22.4355 22.4458 22.736 22.4458C23.0365 22.4458 23.2801 22.2022 23.2801 21.9018V20.3547H24.2674C24.5679 20.3547 24.8115 20.1111 24.8115 19.8107C24.8115 19.5102 24.5679 19.2666 24.2674 19.2666H23.2801V18.3413H24.3995Z" fill="#CD6E00"/>
<path id="Vector_4" d="M26.0006 14.9738H25.6016V14.8186C25.6016 14.1192 25.3366 13.4545 24.8554 12.9469L22.5955 10.5631C22.0841 10.0237 21.3646 9.71436 20.6213 9.71436H13.3779C12.4778 9.71436 11.7456 10.4466 11.7456 11.3466V14.9738H11.3466C10.4466 14.9738 9.71436 15.7061 9.71436 16.6061V23.1351C9.71436 24.0351 10.4466 24.7674 11.3466 24.7674H11.7456V26.6535C11.7456 27.5536 12.4778 28.2858 13.3779 28.2858H23.9694C24.8694 28.2858 25.6016 27.5536 25.6016 26.6535V24.7674H26.0006C26.9007 24.7674 27.6329 24.0351 27.6329 23.1351V16.6061C27.6329 15.7061 26.9007 14.9738 26.0006 14.9738ZM12.8338 11.3466C12.8338 11.0466 13.0779 10.8025 13.3779 10.8025H20.6213C21.0672 10.8025 21.499 10.9881 21.8058 11.3118L24.0658 13.6956C24.3545 14.0002 24.5135 14.399 24.5135 14.8186V14.9738H12.8338V11.3466ZM24.5135 26.6535C24.5135 26.9535 24.2694 27.1976 23.9694 27.1976H13.3779C13.0779 27.1976 12.8338 26.9535 12.8338 26.6535V24.7674H24.5135V26.6535ZM26.5447 23.1351C26.5447 23.4351 26.3006 23.6792 26.0006 23.6792H11.3466C11.0466 23.6792 10.8025 23.4351 10.8025 23.1351V16.6061C10.8025 16.3061 11.0466 16.062 11.3466 16.062H26.0006C26.3006 16.062 26.5447 16.3061 26.5447 16.6061V23.1351Z" fill="#CD6E00"/>
</g>
</g>
<defs>
<filter id="filter0_d_17_1176" x="0" y="0" width="38" height="38" filterUnits="userSpaceOnUse" color-interpolation-filters="sRGB">
<feFlood flood-opacity="0" result="BackgroundImageFix"/>
<feColorMatrix in="SourceAlpha" type="matrix" values="0 0 0 0 0 0 0 0 0 0 0 0 0 0 0 0 0 0 127 0" result="hardAlpha"/>
<feOffset/>
<feGaussianBlur stdDeviation="2"/>
<feComposite in2="hardAlpha" operator="out"/>
<feColorMatrix type="matrix" values="0 0 0 0 0 0 0 0 0 0 0 0 0 0 0 0 0 0 0.17 0"/>
<feBlend mode="normal" in2="BackgroundImageFix" result="effect1_dropShadow_17_1176"/>
<feBlend mode="normal" in="SourceGraphic" in2="effect1_dropShadow_17_1176" result="shape"/>
</filter>
</defs>
</svg>
