<svg width="29" height="29" viewBox="0 0 29 29" fill="none" xmlns="http://www.w3.org/2000/svg">
<g id="Group 42">
<path id="Vector" d="M28.7062 6.2718L17.4117 0.0698606C17.242 -0.0232869 17.0362 -0.0232869 16.8665 0.0698606L12.6094 2.4074C12.5196 2.43107 12.4357 2.47621 12.3662 2.54103L5.57223 6.2718C5.39102 6.37114 5.2784 6.56142 5.2784 6.76829V14.2692C4.13231 14.6276 3.08203 15.2598 2.20874 16.1333C-0.0675091 18.4093 -0.647855 21.8807 0.764623 24.7714C0.9018 25.0524 1.24098 25.169 1.52197 25.0316C1.80318 24.8942 1.91956 24.555 1.78239 24.274C0.582311 21.8179 1.07548 18.8684 3.00968 16.9342C4.21926 15.7246 5.82733 15.0584 7.53784 15.0584C9.24834 15.0584 10.8564 15.7246 12.066 16.9342C13.2754 18.1436 13.9416 19.7516 13.9416 21.4621C13.9416 23.1726 13.2754 24.7807 12.0658 25.9903C10.1316 27.9245 7.18206 28.4177 4.72593 27.2176C4.44494 27.0802 4.10576 27.1968 3.96859 27.4778C3.83119 27.759 3.94757 28.0982 4.22878 28.2353C5.28172 28.75 6.41144 29 7.53297 29C9.48951 28.9998 11.4199 28.2382 12.8669 26.7912C13.5305 26.1277 14.0548 25.3622 14.4259 24.53L16.8665 25.8702C16.9515 25.9168 17.0453 25.9401 17.1391 25.9401C17.2329 25.9401 17.3269 25.9168 17.4117 25.8702L28.7062 19.6684C28.8874 19.5689 29 19.3786 29 19.1719V15.2356C29 14.9228 28.7465 14.6692 28.4336 14.6692C28.1208 14.6692 27.8672 14.9228 27.8672 15.2356V18.8368L17.7073 24.4156V13.3043L21.0604 11.4631V14.3818C21.0604 14.5823 21.1661 14.7677 21.3385 14.8695C21.4274 14.9219 21.527 14.9482 21.6268 14.9482C21.7206 14.9482 21.8146 14.925 21.8998 14.8781L24.3201 13.5459C24.5011 13.4464 24.6132 13.2563 24.6132 13.0499V9.51205L27.8672 7.72543V10.7046C27.8672 11.0175 28.1208 11.271 28.4336 11.271C28.7465 11.271 29 11.0175 29 10.7046V6.76829C29 6.56164 28.8874 6.37114 28.7062 6.2718ZM17.1391 1.21241L27.2568 6.76829L24.0652 8.52083L13.9475 2.96495L17.1391 1.21241ZM17.1391 12.324L7.02143 6.76829L10.33 4.95136L20.4479 10.507L17.1391 12.324ZM21.6246 9.86096L11.5069 4.3053L12.7707 3.61123L22.8886 9.16689L21.6246 9.86096ZM12.8669 16.1333C11.4434 14.7097 9.5508 13.9258 7.53784 13.9258C7.15706 13.9258 6.78093 13.9539 6.41122 14.009V7.72543L16.5747 13.3063V24.4176L14.8106 23.449C14.9843 22.8096 15.0742 22.1427 15.0742 21.4621C15.0742 19.4492 14.2903 17.5566 12.8669 16.1333ZM23.4807 12.7151L22.1932 13.4238V10.8411L23.4807 10.1342V12.7151Z" fill="#E66E00"/>
<path id="Vector_2" d="M28.4336 12.4009C28.2847 12.4009 28.1384 12.4615 28.0331 12.5668C27.9278 12.6721 27.8672 12.8182 27.8672 12.9673C27.8672 13.1162 27.9278 13.2622 28.0331 13.3675C28.1384 13.4731 28.2847 13.5335 28.4336 13.5335C28.5825 13.5335 28.7287 13.4731 28.8341 13.3675C28.9394 13.2622 29 13.1162 29 12.9673C29 12.8182 28.9394 12.6721 28.8341 12.5668C28.7287 12.4615 28.5825 12.4009 28.4336 12.4009Z" fill="#E66E00"/>
<path id="Vector_3" d="M5.63338 22.0287C5.7783 22.0287 5.92345 21.9733 6.03385 21.8629C6.2551 21.6417 6.2551 21.283 6.03385 21.0618L5.64157 20.6693H8.98912C9.80112 20.6693 10.4618 21.3299 10.4618 22.1419C10.4618 22.9539 9.80112 23.6146 8.98912 23.6146H7.00559C6.69274 23.6146 6.43919 23.8681 6.43919 24.181C6.43919 24.4936 6.69274 24.7472 7.00559 24.7472H8.98912C10.4257 24.7472 11.5946 23.5785 11.5946 22.1419C11.5946 20.7053 10.4257 19.5367 8.98912 19.5367H5.64157L6.03385 19.1442C6.2551 18.9229 6.2551 18.5643 6.03385 18.343C5.81282 18.122 5.45417 18.122 5.23291 18.343L3.87354 19.7024C3.65251 19.9237 3.65251 20.2823 3.87354 20.5036L5.23291 21.8627C5.34354 21.9733 5.48846 22.0287 5.63338 22.0287Z" fill="#E66E00"/>
<path id="Vector_4" d="M2.60973 26.9581C2.44866 26.9581 2.28869 26.8895 2.17696 26.7566L2.17585 26.7552C1.97451 26.5158 2.00549 26.1587 2.24488 25.9574C2.48428 25.7558 2.8416 25.7868 3.04294 26.0262C3.24406 26.2658 3.21375 26.6236 2.97435 26.8249C2.86793 26.9143 2.7385 26.9581 2.60973 26.9581Z" fill="#E66E00"/>
</g>
</svg>
