<svg width="33" height="21" viewBox="0 0 33 21" fill="none" xmlns="http://www.w3.org/2000/svg">
<g id="Group 43">
<g id="Group">
<g id="Group_2">
<path id="Vector" d="M29.9442 8.63446L29.1104 5.29924C29.3383 5.25082 29.5094 5.04858 29.5094 4.80627V4.26853C29.5094 3.10096 28.5595 2.15112 27.392 2.15112H23.5941V1.04191C23.5941 0.467377 23.1267 0 22.5522 0H3.1929C2.61837 0 2.15099 0.467377 2.15099 1.04191V10.1838C2.15099 10.4622 2.37669 10.688 2.65516 10.688C2.93356 10.688 3.15932 10.4623 3.15932 10.1838V1.04191C3.15932 1.02336 3.17435 1.00833 3.1929 1.00833H22.5521C22.5707 1.00833 22.5857 1.02336 22.5857 1.04191V10.1839C22.5857 10.4623 22.8114 10.6881 23.0899 10.6881C23.3683 10.6881 23.594 10.4624 23.594 10.1839V9.61242H29.5412C29.5417 9.61242 29.5421 9.61255 29.5425 9.61255C29.543 9.61255 29.5435 9.61248 29.5439 9.61248C30.2757 9.61299 30.8971 10.0933 31.1106 10.7552H29.5429C29.2645 10.7552 29.0388 10.9809 29.0388 11.2594V12.3349C29.0388 13.2059 29.7474 13.9145 30.6184 13.9145H31.1898V16.1327H29.8716C29.4385 14.8824 28.2499 13.9817 26.8541 13.9817C25.4583 13.9817 24.2696 14.8824 23.8367 16.1327H23.5939V12.3348C23.5939 12.0564 23.3682 11.8306 23.0898 11.8306C22.8114 11.8306 22.5856 12.0563 22.5856 12.3348V16.1326H12.1257C11.6927 14.8822 10.504 13.9816 9.10826 13.9816C7.71248 13.9816 6.52378 14.8822 6.09081 16.1326H3.1929C3.17435 16.1326 3.15932 16.1176 3.15932 16.099V14.9899H5.34396C5.62236 14.9899 5.84812 14.7642 5.84812 14.4857C5.84812 14.2073 5.62242 13.9816 5.34396 13.9816H0.504166C0.225765 13.9816 0 14.2073 0 14.4857C0 14.7642 0.225702 14.9899 0.504166 14.9899H2.15105V16.099C2.15105 16.6736 2.61843 17.1409 3.19297 17.1409H5.91623C5.91611 17.1521 5.91535 17.1633 5.91535 17.1745C5.91535 18.9351 7.34773 20.3674 9.10826 20.3674C10.8688 20.3674 12.3012 18.9351 12.3012 17.1745C12.3012 17.1632 12.3004 17.1521 12.3003 17.1409H23.6621C23.662 17.1521 23.6612 17.1633 23.6612 17.1745C23.6612 18.9351 25.0936 20.3674 26.8541 20.3674C28.6146 20.3674 30.047 18.9351 30.047 17.1745C30.047 17.1632 30.0463 17.1521 30.0461 17.1409H31.694C31.9724 17.1409 32.1981 16.9152 32.1981 16.6368V11.2592C32.1982 9.93157 31.2186 8.82847 29.9442 8.63446ZM23.5941 3.15938H27.392C28.0036 3.15938 28.5011 3.65695 28.5011 4.26853V4.30211H23.5941V3.15938ZM23.5941 8.60415V5.31038H28.0739L28.8973 8.60415H23.5941ZM9.10826 19.3593C7.90365 19.3593 6.92362 18.3793 6.92362 17.1747C6.92362 15.97 7.90365 14.99 9.10826 14.99C10.3129 14.99 11.2929 15.97 11.2929 17.1747C11.2929 18.3793 10.3129 19.3593 9.10826 19.3593ZM26.8542 19.3593C25.6496 19.3593 24.6696 18.3793 24.6696 17.1747C24.6696 15.97 25.6496 14.99 26.8542 14.99C28.0588 14.99 29.0389 15.97 29.0389 17.1747C29.0389 18.3793 28.0588 19.3593 26.8542 19.3593ZM31.1899 12.9062H30.6185C30.3035 12.9062 30.0471 12.6499 30.0471 12.3348V11.7634H31.1899V12.9062H31.1899Z" fill="#E66E00"/>
</g>
</g>
<g id="Group_3">
<g id="Group_4">
<path id="Vector_2" d="M9.10832 16.1328C8.53378 16.1328 8.06641 16.6002 8.06641 17.1747C8.06641 17.7493 8.53378 18.2166 9.10832 18.2166C9.68286 18.2166 10.1502 17.7493 10.1502 17.1747C10.1502 16.6002 9.68286 16.1328 9.10832 16.1328Z" fill="#E66E00"/>
</g>
</g>
<g id="Group_5">
<g id="Group_6">
<path id="Vector_3" d="M26.8542 16.1328C26.2796 16.1328 25.8123 16.6002 25.8123 17.1747C25.8123 17.7493 26.2796 18.2166 26.8542 18.2166C27.4287 18.2166 27.8961 17.7493 27.8961 17.1747C27.8961 16.6002 27.4287 16.1328 26.8542 16.1328Z" fill="#E66E00"/>
</g>
</g>
<g id="Group_7">
<g id="Group_8">
<path id="Vector_4" d="M20.9388 13.9817H13.4102C13.1318 13.9817 12.906 14.2074 12.906 14.4859C12.906 14.7643 13.1317 14.99 13.4102 14.99H20.9388C21.2172 14.99 21.4429 14.7643 21.4429 14.4859C21.4429 14.2074 21.2172 13.9817 20.9388 13.9817Z" fill="#E66E00"/>
</g>
</g>
<g id="Group_9">
<g id="Group_10">
<path id="Vector_5" d="M8.0327 11.8307H1.57961C1.3012 11.8307 1.07544 12.0564 1.07544 12.3349C1.07544 12.6133 1.30114 12.839 1.57961 12.839H8.0327C8.3111 12.839 8.53687 12.6133 8.53687 12.3349C8.53687 12.0564 8.3111 11.8307 8.0327 11.8307Z" fill="#E66E00"/>
</g>
</g>
<g id="Group_11">
<g id="Group_12">
<path id="Vector_6" d="M17.5311 4.98746C17.3342 4.79063 17.0149 4.79063 16.8181 4.98753L12.3348 9.47081L10.0025 7.13852C9.80557 6.94162 9.48636 6.94162 9.28952 7.13852C9.09262 7.33542 9.09262 7.65457 9.28952 7.85147L11.9783 10.5403C12.0767 10.6388 12.2058 10.6879 12.3348 10.6879C12.4637 10.6879 12.5929 10.6388 12.6912 10.5403L17.531 5.70048C17.7279 5.50351 17.7279 5.18436 17.5311 4.98746Z" fill="#E66E00"/>
</g>
</g>
</g>
</svg>
