<svg width="21" height="27" viewBox="0 0 21 27" fill="none" xmlns="http://www.w3.org/2000/svg">
<g id="Group">
<path id="Vector" d="M8.43225 13.5737C8.13107 13.2725 7.64265 13.2725 7.34141 13.5737C7.04017 13.8748 7.04017 14.3633 7.34141 14.6645L9.39835 16.7214C9.54892 16.872 9.74633 16.9473 9.94375 16.9473C10.1412 16.9473 10.3386 16.872 10.4891 16.7214L14.603 12.6075C14.9043 12.3063 14.9043 11.8179 14.603 11.5167C14.3018 11.2155 13.8134 11.2155 13.5122 11.5167L9.94375 15.0851L8.43225 13.5737Z" fill="#E66E00"/>
<path id="Vector_2" d="M20.2286 4.60568C17.1186 4.60568 14.1947 3.39455 11.9955 1.19542L11.5179 0.717751C11.2167 0.41646 10.7283 0.416563 10.427 0.717751L9.94929 1.19542C7.75016 3.39455 4.82627 4.60568 1.71618 4.60568C1.29018 4.60568 0.944824 4.95104 0.944824 5.37703V13.0711C0.944824 19.2559 4.87363 24.7645 10.7212 26.7786C10.8026 26.8067 10.8875 26.8206 10.9724 26.8206C11.0574 26.8206 11.1423 26.8067 11.2236 26.7786C17.0712 24.7645 21 19.2558 21 13.0711V5.37703C21 4.95104 20.6546 4.60568 20.2286 4.60568ZM19.4573 13.0711C19.4573 18.5086 16.0587 23.3614 10.9724 25.2306C5.88611 23.3614 2.48753 18.5087 2.48753 13.0711V6.12617C3.95814 6.04106 5.39286 5.7119 6.76227 5.1447C8.34076 4.49085 9.75681 3.55196 10.9724 2.35353C12.188 3.55196 13.6041 4.4908 15.1825 5.14465C16.552 5.71185 17.9866 6.04101 19.4573 6.12612V13.0711Z" fill="#E66E00"/>
<path id="Vector_3" d="M4.03027 13.6048C4.03027 17.4327 7.14453 20.547 10.9724 20.547C14.8004 20.547 17.9146 17.4327 17.9146 13.6048C17.9146 9.77686 14.8004 6.6626 10.9724 6.6626C7.14448 6.6626 4.03027 9.77686 4.03027 13.6048ZM16.3719 13.6048C16.3719 16.582 13.9497 19.0042 10.9724 19.0042C7.99518 19.0042 5.57298 16.582 5.57298 13.6048C5.57298 10.6275 7.99518 8.2053 10.9724 8.2053C13.9498 8.2053 16.3719 10.6275 16.3719 13.6048Z" fill="#E66E00"/>
</g>
</svg>
