<svg width="26" height="22" viewBox="0 0 26 22" fill="none" xmlns="http://www.w3.org/2000/svg">
<g id="Group">
<g id="Group_2">
<g id="Group_3">
<path id="Vector" d="M25.4713 12.4798C25.4713 12.4797 25.4713 12.4796 25.4712 12.4795L20.6554 0.387273C20.5532 0.130345 20.2619 0.00491696 20.005 0.107125C20.0048 0.107187 20.0046 0.10725 20.0044 0.107375L0.467164 7.88694C0.387488 7.92136 0.31839 7.97631 0.266879 8.04616C0.104398 8.1306 0.00175249 8.29771 0 8.48078V21.4993C0 21.7758 0.224194 22 0.500712 22H21.5306C21.8071 22 22.0313 21.7758 22.0313 21.4993V14.3892L25.1918 13.1304C25.4487 13.0279 25.5738 12.7366 25.4713 12.4798ZM21.0299 20.9986H1.00142V8.98149H21.0299V20.9986ZM8.35438 7.98257L16.7383 4.64182C17.4865 5.42832 18.5233 5.87533 19.6089 5.87958L20.4451 7.98257H8.35438ZM22.0313 13.3137V8.48078C22.0313 8.20426 21.8071 7.98007 21.5306 7.98007H21.5226L20.4616 5.31528C20.4498 5.29306 20.4361 5.27191 20.4205 5.25219C20.3668 5.01103 20.1435 4.84649 19.8973 4.86664C18.8872 4.95871 17.8991 4.53323 17.2721 3.73603C17.116 3.54345 16.8418 3.49557 16.6296 3.62387C16.6059 3.62669 16.5823 3.63107 16.559 3.63689L6.32349 7.71269C6.19963 7.76126 6.10055 7.85758 6.0486 7.98007H2.94018L19.9103 1.22296L24.3561 12.3863L22.0313 13.3137Z" fill="#E66E00"/>
<path id="Vector_2" d="M2.36019 17.6183C3.33233 17.9056 4.09303 18.6654 4.38157 19.6371C4.44485 19.8492 4.63994 19.9946 4.86125 19.9946C4.88722 19.993 4.91301 19.9891 4.93836 19.9831C4.96083 19.9895 4.9838 19.9942 5.00696 19.9971H17.024C17.0447 19.9945 17.0651 19.9903 17.0851 19.9846C17.3353 20.0455 17.5874 19.8921 17.6483 19.6419C17.6485 19.641 17.6487 19.6401 17.6489 19.6391C17.9367 18.6664 18.6975 17.9055 19.6703 17.6178C19.9062 17.5457 20.0528 17.3106 20.0138 17.067C20.0205 17.0427 20.0253 17.0179 20.0283 16.9929V12.9872C20.0254 12.9621 20.0204 12.9373 20.0133 12.9131C20.0525 12.6694 19.9059 12.4342 19.6698 12.3623C18.697 12.0746 17.9364 11.3134 17.6494 10.3404C17.577 10.1029 17.3396 9.95593 17.0946 9.99693C17.0715 9.99048 17.0479 9.98579 17.024 9.98291H5.00696C4.98173 9.98591 4.95676 9.99092 4.93235 9.99793C4.68882 9.95913 4.45386 10.1056 4.38157 10.3414C4.0936 11.314 3.33283 12.0746 2.36019 12.3623C2.1243 12.4344 1.97771 12.6695 2.01671 12.9131C2.0102 12.9374 2.0055 12.9621 2.00269 12.9872V16.9929C2.00556 17.0164 2.01026 17.0397 2.01671 17.0625C1.97565 17.3076 2.12254 17.5454 2.36019 17.6183ZM3.00411 13.1905C4.00954 12.7866 4.80642 11.9898 5.21025 10.9843H16.8203C17.2243 11.9898 18.0213 12.7866 19.0269 13.1905V16.7896C18.0218 17.1938 17.225 17.9906 16.8208 18.9957H5.21025C4.80598 17.9906 4.00923 17.1938 3.00411 16.7896V13.1905Z" fill="#E66E00"/>
<path id="Vector_3" d="M11.0155 17.9941C12.6747 17.9941 14.0198 16.6491 14.0198 14.9899C14.0198 13.3306 12.6747 11.9856 11.0155 11.9856C9.35627 11.9856 8.01123 13.3306 8.01123 14.9899C8.01286 16.6484 9.35696 17.9925 11.0155 17.9941ZM11.0155 12.987C12.1216 12.987 13.0183 13.8837 13.0183 14.9899C13.0183 16.096 12.1216 16.9927 11.0155 16.9927C9.90937 16.9927 9.01265 16.096 9.01265 14.9899C9.01265 13.8837 9.90937 12.987 11.0155 12.987Z" fill="#E66E00"/>
<path id="Vector_4" d="M5.5079 15.741C5.92268 15.741 6.25897 15.4047 6.25897 14.99C6.25897 14.5752 5.92268 14.2389 5.5079 14.2389C5.09313 14.2389 4.75684 14.5752 4.75684 14.99C4.75684 15.4048 5.09313 15.741 5.5079 15.741ZM5.5079 14.7396C5.64616 14.7396 5.75826 14.8517 5.75826 14.99C5.75826 15.1282 5.64616 15.2403 5.5079 15.2403C5.36964 15.2403 5.25755 15.1282 5.25755 14.99C5.25755 14.8517 5.36964 14.7396 5.5079 14.7396Z" fill="#E66E00"/>
<path id="Vector_5" d="M16.5233 15.741C16.9381 15.741 17.2744 15.4047 17.2744 14.99C17.2744 14.5752 16.9381 14.2389 16.5233 14.2389C16.1085 14.2389 15.7722 14.5752 15.7722 14.99C15.7722 15.4048 16.1085 15.741 16.5233 15.741ZM16.5233 14.7396C16.6615 14.7396 16.7736 14.8517 16.7736 14.99C16.7736 15.1282 16.6615 15.2403 16.5233 15.2403C16.385 15.2403 16.2729 15.1282 16.2729 14.99C16.2729 14.8517 16.385 14.7396 16.5233 14.7396Z" fill="#E66E00"/>
</g>
</g>
</g>
</svg>
