<svg width="96" height="96" viewBox="0 0 96 96" fill="none" xmlns="http://www.w3.org/2000/svg">
<path fill-rule="evenodd" clip-rule="evenodd" d="M0 11.4286C0 5.11675 5.11675 0 11.4286 0H84.5714C90.8832 0 96 5.11675 96 11.4286V43.4286H91.4286V11.4286C91.4286 7.64146 88.3584 4.57143 84.5714 4.57143H11.4286C7.64146 4.57143 4.57143 7.64146 4.57143 11.4286V84.5714C4.57143 88.3584 7.64146 91.4286 11.4286 91.4286H43.4286V96H11.4286C5.11675 96 0 90.8832 0 84.5714V11.4286Z" fill="#E66E00"/>
<path fill-rule="evenodd" clip-rule="evenodd" d="M32 2.28571C32 1.02336 33.0234 0 34.2857 0H61.7143C62.9765 0 64 1.02336 64 2.28571V34.2857C64 35.0204 63.6466 35.7104 63.051 36.14C62.4549 36.5696 61.6887 36.6865 60.9915 36.4541L48 32.1237L35.0085 36.4541C34.3115 36.6865 33.5453 36.5696 32.9492 36.14C32.3532 35.7104 32 35.0204 32 34.2857V2.28571ZM36.5714 4.57143V31.1145L47.2773 27.5459C47.7463 27.3895 48.2537 27.3895 48.7227 27.5459L59.4286 31.1145V4.57143H36.5714Z" fill="#E66E00"/>
<path fill-rule="evenodd" clip-rule="evenodd" d="M70.857 50.2855C59.4957 50.2855 50.2856 59.4956 50.2856 70.857C50.2856 82.2183 59.4957 91.4284 70.857 91.4284C82.2184 91.4284 91.4285 82.2183 91.4285 70.857C91.4285 59.4956 82.2184 50.2855 70.857 50.2855ZM45.7142 70.857C45.7142 56.9708 56.9709 45.7141 70.857 45.7141C84.7432 45.7141 95.9999 56.9708 95.9999 70.857C95.9999 84.7431 84.7432 95.9998 70.857 95.9998C56.9709 95.9998 45.7142 84.7431 45.7142 70.857Z" fill="#E66E00"/>
<path fill-rule="evenodd" clip-rule="evenodd" d="M81.7559 65.4637L70.3273 79.178C69.9164 79.6713 69.3166 79.9689 68.6752 79.9981C68.0338 80.0274 67.4094 79.7851 66.9554 79.3312L60.0983 72.474L63.3308 69.2411L68.4178 74.3287L78.2441 62.5371L81.7559 65.4637Z" fill="#E66E00"/>
</svg>
